<?xml version="1.0" encoding="UTF-8" standalone="no"?>
<!-- Created with Inkscape (http://www.inkscape.org/) -->

<svg
   xmlns:shaper="http://www.shapertools.com/namespaces/shaper"
   xmlns:dc="http://purl.org/dc/elements/1.1/"
   xmlns:cc="http://creativecommons.org/ns#"
   xmlns:rdf="http://www.w3.org/1999/02/22-rdf-syntax-ns#"
   xmlns:svg="http://www.w3.org/2000/svg"
   xmlns="http://www.w3.org/2000/svg"
   xmlns:sodipodi="http://sodipodi.sourceforge.net/DTD/sodipodi-0.dtd"
   xmlns:inkscape="http://www.inkscape.org/namespaces/inkscape"
   width="210mm"
   height="148mm"
   viewBox="0 0 210 148"
   version="1.1"
   id="svg8"
   inkscape:version="0.92.5 (2060ec1f9f, 2020-04-08)"
   sodipodi:docname="PMMA-5mm_A5_laser-cut.svg"
   inkscape:export-filename="/media/guillaume/D-PC/KAL/Technique/Intérieur/V3.0_final/legende_str_int_PMMA_5mm_A5.png"
   inkscape:export-xdpi="253"
   inkscape:export-ydpi="253">
  <defs
     id="defs2" />
  <sodipodi:namedview
     id="base"
     pagecolor="#ffffff"
     bordercolor="#666666"
     borderopacity="1.0"
     inkscape:pageopacity="0.0"
     inkscape:pageshadow="2"
     inkscape:zoom="0.98994949"
     inkscape:cx="455.05637"
     inkscape:cy="311.37746"
     inkscape:document-units="mm"
     inkscape:current-layer="layer1"
     showgrid="false"
     inkscape:window-width="1872"
     inkscape:window-height="1016"
     inkscape:window-x="48"
     inkscape:window-y="27"
     inkscape:window-maximized="1" />
  <metadata
     id="metadata5">
    <rdf:RDF>
      <cc:Work
         rdf:about="">
        <dc:format>image/svg+xml</dc:format>
        <dc:type
           rdf:resource="http://purl.org/dc/dcmitype/StillImage" />
        <dc:title></dc:title>
      </cc:Work>
    </rdf:RDF>
  </metadata>
  <g
     inkscape:label="Calque 1"
     inkscape:groupmode="layer"
     id="layer1"
     transform="translate(0,-149)">
    <g
       style="fill:none;stroke:#000000;stroke-opacity:1"
       id="g887"
       transform="matrix(10,0,0,10,3.0872265,173.95879)">
      <path
         style="vector-effect:non-scaling-stroke;fill:none;stroke:#000000;stroke-opacity:1"
         d="m 8.297,3.28 h 0.25 v 1.1 h -0.25 v 0.6 h 0.25 v 1.1 h -0.25 v 0.6 h 0.25 v 1.1 h -0.25 v 0.6 h 0.25 v 1.1 h -0.25 v 0.6 h 0.25 V 12 H 7.1735 v -1 h -5.8 v 1 H 0 V 10.08 H 0.25 V 9.48 H 0 V 8.38 H 0.25 V 7.78 H 0 V 6.68 H 0.25 V 6.08 H 0 V 4.98 H 0.25 V 4.38 H 0 V 3.28 H 0.25 V 2.68 H 0 V 0 h 8.547 v 2.68 h -0.25 z"
         shaper:cutDepth="0"
         shaper:pathType="exterior"
         transform="matrix(1,0,0,-1,0,12)"
         id="path2"
         inkscape:connector-curvature="0" />
      <path
         style="vector-effect:non-scaling-stroke;fill:none;stroke:#000000;stroke-opacity:1"
         d="M 2.45,2.68 H 2.2 v 0.6 h 0.25 z"
         shaper:cutDepth="0"
         shaper:pathType="interior"
         transform="matrix(1,0,0,-1,0,12)"
         id="path4"
         inkscape:connector-curvature="0" />
      <path
         style="vector-effect:non-scaling-stroke;fill:none;stroke:#000000;stroke-opacity:1"
         d="m 6.097,2.68 v 0.6 h 0.25 v -0.6 z"
         shaper:cutDepth="0"
         shaper:pathType="interior"
         transform="matrix(1,0,0,-1,0,12)"
         id="path6"
         inkscape:connector-curvature="0" />
      <path
         style="vector-effect:non-scaling-stroke;fill:none;stroke:#000000;stroke-opacity:1"
         d="m 4.3985,1 h -0.25 v 0.6 h 0.25 z"
         shaper:cutDepth="0"
         shaper:pathType="interior"
         transform="matrix(1,0,0,-1,0,12)"
         id="path8"
         inkscape:connector-curvature="0" />
      <path
         style="vector-effect:non-scaling-stroke;fill:none;stroke:#000000;stroke-opacity:1"
         d="m 6.097,1 v 0.6 h 0.25 V 1 Z"
         shaper:cutDepth="0"
         shaper:pathType="interior"
         transform="matrix(1,0,0,-1,0,12)"
         id="path10"
         inkscape:connector-curvature="0" />
      <path
         style="vector-effect:non-scaling-stroke;fill:none;stroke:#000000;stroke-opacity:1"
         d="M 2.45,1 H 2.2 v 0.6 h 0.25 z"
         shaper:cutDepth="0"
         shaper:pathType="interior"
         transform="matrix(1,0,0,-1,0,12)"
         id="path12"
         inkscape:connector-curvature="0" />
      <path
         style="vector-effect:non-scaling-stroke;fill:none;stroke:#000000;stroke-opacity:1"
         d="m 6.097,6.04 v 0.6 h 0.25 v -0.6 z"
         shaper:cutDepth="0"
         shaper:pathType="interior"
         transform="matrix(1,0,0,-1,0,12)"
         id="path14"
         inkscape:connector-curvature="0" />
      <path
         style="vector-effect:non-scaling-stroke;fill:none;stroke:#000000;stroke-opacity:1"
         d="m 4.3985,4.96 v -0.6 h -0.25 v 0.6 z"
         shaper:cutDepth="0"
         shaper:pathType="interior"
         transform="matrix(1,0,0,-1,0,12)"
         id="path16"
         inkscape:connector-curvature="0" />
      <path
         style="vector-effect:non-scaling-stroke;fill:none;stroke:#000000;stroke-opacity:1"
         d="m 6.097,7.72 v 0.6 h 0.25 v -0.6 z"
         shaper:cutDepth="0"
         shaper:pathType="interior"
         transform="matrix(1,0,0,-1,0,12)"
         id="path18"
         inkscape:connector-curvature="0" />
      <path
         style="vector-effect:non-scaling-stroke;fill:none;stroke:#000000;stroke-opacity:1"
         d="M 6.097,9.4 V 10 h 0.25 V 9.4 Z"
         shaper:cutDepth="0"
         shaper:pathType="interior"
         transform="matrix(1,0,0,-1,0,12)"
         id="path20"
         inkscape:connector-curvature="0" />
      <path
         style="vector-effect:non-scaling-stroke;fill:none;stroke:#000000;stroke-opacity:1"
         d="M 2.45,6.04 H 2.2 v 0.6 h 0.25 z"
         shaper:cutDepth="0"
         shaper:pathType="interior"
         transform="matrix(1,0,0,-1,0,12)"
         id="path22"
         inkscape:connector-curvature="0" />
      <path
         style="vector-effect:non-scaling-stroke;fill:none;stroke:#000000;stroke-opacity:1"
         d="M 2.45,4.36 H 2.2 v 0.6 h 0.25 z"
         shaper:cutDepth="0"
         shaper:pathType="interior"
         transform="matrix(1,0,0,-1,0,12)"
         id="path24"
         inkscape:connector-curvature="0" />
      <path
         style="vector-effect:non-scaling-stroke;fill:none;stroke:#000000;stroke-opacity:1"
         d="m 4.3985,3.28 v -0.6 h -0.25 v 0.6 z"
         shaper:cutDepth="0"
         shaper:pathType="interior"
         transform="matrix(1,0,0,-1,0,12)"
         id="path26"
         inkscape:connector-curvature="0" />
      <path
         style="vector-effect:non-scaling-stroke;fill:none;stroke:#000000;stroke-opacity:1"
         d="m 4.3985,6.64 v -0.6 h -0.25 v 0.6 z"
         shaper:cutDepth="0"
         shaper:pathType="interior"
         transform="matrix(1,0,0,-1,0,12)"
         id="path28"
         inkscape:connector-curvature="0" />
      <path
         style="vector-effect:non-scaling-stroke;fill:none;stroke:#000000;stroke-opacity:1"
         d="M 4.3985,10 V 9.4 h -0.25 V 10 Z"
         shaper:cutDepth="0"
         shaper:pathType="interior"
         transform="matrix(1,0,0,-1,0,12)"
         id="path30"
         inkscape:connector-curvature="0" />
      <path
         style="vector-effect:non-scaling-stroke;fill:none;stroke:#000000;stroke-opacity:1"
         d="m 6.097,4.96 h 0.25 v -0.6 h -0.25 z"
         shaper:cutDepth="0"
         shaper:pathType="interior"
         transform="matrix(1,0,0,-1,0,12)"
         id="path32"
         inkscape:connector-curvature="0" />
      <path
         style="vector-effect:non-scaling-stroke;fill:none;stroke:#000000;stroke-opacity:1"
         d="M 2.45,9.4 H 2.2 V 10 h 0.25 z"
         shaper:cutDepth="0"
         shaper:pathType="interior"
         transform="matrix(1,0,0,-1,0,12)"
         id="path34"
         inkscape:connector-curvature="0" />
      <path
         style="vector-effect:non-scaling-stroke;fill:none;stroke:#000000;stroke-opacity:1"
         d="m 4.3985,8.32 v -0.6 h -0.25 v 0.6 z"
         shaper:cutDepth="0"
         shaper:pathType="interior"
         transform="matrix(1,0,0,-1,0,12)"
         id="path36"
         inkscape:connector-curvature="0" />
      <path
         style="vector-effect:non-scaling-stroke;fill:none;stroke:#000000;stroke-opacity:1"
         d="M 2.45,7.72 H 2.2 v 0.6 h 0.25 z"
         shaper:cutDepth="0"
         shaper:pathType="interior"
         transform="matrix(1,0,0,-1,0,12)"
         id="path38"
         inkscape:connector-curvature="0" />
      <path
         style="vector-effect:non-scaling-stroke;fill:none;stroke:#000000;stroke-opacity:1"
         d="m 0.205,11.3 a 0.175,0.175 0 1 1 0.35,0 0.175,0.175 0 1 1 -0.35,0 z"
         shaper:cutDepth="0"
         shaper:pathType="interior"
         transform="matrix(1,0,0,-1,0,12)"
         id="path40"
         inkscape:connector-curvature="0" />
      <path
         style="vector-effect:non-scaling-stroke;fill:none;stroke:#000000;stroke-opacity:1"
         d="m 0.205,1.3 a 0.175,0.175 0 1 1 0.35,0 0.175,0.175 0 1 1 -0.35,0 z"
         shaper:cutDepth="0"
         shaper:pathType="interior"
         transform="matrix(1,0,0,-1,0,12)"
         id="path42"
         inkscape:connector-curvature="0" />
      <path
         style="vector-effect:non-scaling-stroke;fill:none;stroke:#000000;stroke-opacity:1"
         d="m 7.992,1.3 a 0.175,0.175 0 1 1 0.35,0 0.175,0.175 0 1 1 -0.35,0 z"
         shaper:cutDepth="0"
         shaper:pathType="interior"
         transform="matrix(1,0,0,-1,0,12)"
         id="path44"
         inkscape:connector-curvature="0" />
      <path
         style="vector-effect:non-scaling-stroke;fill:none;stroke:#000000;stroke-opacity:1"
         d="m 7.992,11.3 a 0.175,0.175 0 1 1 0.35,0 0.175,0.175 0 1 1 -0.35,0 z"
         shaper:cutDepth="0"
         shaper:pathType="interior"
         transform="matrix(1,0,0,-1,0,12)"
         id="path46"
         inkscape:connector-curvature="0" />
    </g>
    <g
       id="g860"
       transform="matrix(10,0,0,10,90.709281,215.83729)">
      <path
         d="M 3.45,7.6 A 0.2,0.2 0 0 1 3.25,7.8 H 0 A 0.2,0.2 90 0 1 -0.2,7.6 V 0.2 A 0.2,0.2 -180 0 1 0,0 h 8.44 a 0.2,0.2 -90 0 1 0.2,0.2 V 7.6 A 0.2,0.2 0 0 1 8.44,7.8 H 5.15 A 0.2,0.2 90 0 1 4.95,7.6 V 6.5 A 0.2,0.2 0 0 0 4.75,6.3 h -1.1 a 0.2,0.2 -90 0 0 -0.2,0.2 z"
         shaper:cutDepth="0"
         shaper:pathType="exterior"
         transform="matrix(1,0,0,-1,0.2,7.8)"
         id="path2-3"
         style="vector-effect:non-scaling-stroke;fill:none;stroke:#000000;stroke-width:0.99999273;stroke-miterlimit:4;stroke-dasharray:none;stroke-opacity:1"
         inkscape:connector-curvature="0" />
      <path
         d="m 6.565,6.8 a 0.105,0.105 0 1 1 0.21,0 0.105,0.105 0 1 1 -0.21,0 z"
         shaper:cutDepth="0"
         shaper:pathType="interior"
         transform="matrix(1,0,0,-1,0.2,7.8)"
         id="path4-6"
         style="vector-effect:non-scaling-stroke;fill:none;stroke:#000000;stroke-width:0.99999273;stroke-miterlimit:4;stroke-dasharray:none;stroke-opacity:1"
         inkscape:connector-curvature="0" />
      <path
         d="m 1.665,6.8 a 0.105,0.105 0 1 1 0.21,0 0.105,0.105 0 1 1 -0.21,0 z"
         shaper:cutDepth="0"
         shaper:pathType="interior"
         transform="matrix(1,0,0,-1,0.2,7.8)"
         id="path6-7"
         style="vector-effect:non-scaling-stroke;fill:none;stroke:#000000;stroke-width:0.99999273;stroke-miterlimit:4;stroke-dasharray:none;stroke-opacity:1"
         inkscape:connector-curvature="0" />
      <path
         d="m 0.015,7.4 a 0.175,0.175 0 1 1 0.35,0 0.175,0.175 0 1 1 -0.35,0 z"
         shaper:cutDepth="0"
         shaper:pathType="interior"
         transform="matrix(1,0,0,-1,0.2,7.8)"
         id="path8-5"
         style="vector-effect:non-scaling-stroke;fill:none;stroke:#000000;stroke-width:0.99999273;stroke-miterlimit:4;stroke-dasharray:none;stroke-opacity:1"
         inkscape:connector-curvature="0" />
      <path
         d="m 0.015,0.4 a 0.175,0.175 0 1 1 0.35,0 0.175,0.175 0 1 1 -0.35,0 z"
         shaper:cutDepth="0"
         shaper:pathType="interior"
         transform="matrix(1,0,0,-1,0.2,7.8)"
         id="path10-3"
         style="vector-effect:non-scaling-stroke;fill:none;stroke:#000000;stroke-width:0.99999273;stroke-miterlimit:4;stroke-dasharray:none;stroke-opacity:1"
         inkscape:connector-curvature="0" />
      <path
         d="m 8.075,0.4 a 0.175,0.175 0 1 1 0.35,0 0.175,0.175 0 1 1 -0.35,0 z"
         shaper:cutDepth="0"
         shaper:pathType="interior"
         transform="matrix(1,0,0,-1,0.2,7.8)"
         id="path12-5"
         style="vector-effect:non-scaling-stroke;fill:none;stroke:#000000;stroke-width:0.99999273;stroke-miterlimit:4;stroke-dasharray:none;stroke-opacity:1"
         inkscape:connector-curvature="0" />
      <path
         d="m 8.075,7.4 a 0.175,0.175 0 1 1 0.35,0 0.175,0.175 0 1 1 -0.35,0 z"
         shaper:cutDepth="0"
         shaper:pathType="interior"
         transform="matrix(1,0,0,-1,0.2,7.8)"
         id="path14-6"
         style="vector-effect:non-scaling-stroke;fill:none;stroke:#000000;stroke-width:0.99999273;stroke-miterlimit:4;stroke-dasharray:none;stroke-opacity:1"
         inkscape:connector-curvature="0" />
      <path
         d="m 1.665,1 a 0.105,0.105 0 1 1 0.21,0 0.105,0.105 0 1 1 -0.21,0 z"
         shaper:cutDepth="0"
         shaper:pathType="interior"
         transform="matrix(1,0,0,-1,0.2,7.8)"
         id="path16-2"
         style="vector-effect:non-scaling-stroke;fill:none;stroke:#000000;stroke-width:0.99999273;stroke-miterlimit:4;stroke-dasharray:none;stroke-opacity:1"
         inkscape:connector-curvature="0" />
      <path
         d="m 6.565,1 a 0.105,0.105 0 1 1 0.21,0 0.105,0.105 0 1 1 -0.21,0 z"
         shaper:cutDepth="0"
         shaper:pathType="interior"
         transform="matrix(1,0,0,-1,0.2,7.8)"
         id="path18-9"
         style="vector-effect:non-scaling-stroke;fill:none;stroke:#000000;stroke-width:0.99999273;stroke-miterlimit:4;stroke-dasharray:none;stroke-opacity:1"
         inkscape:connector-curvature="0" />
      <path
         d="m 6.01,6.4 a 0.13,0.13 0 1 1 0.26,0 0.13,0.13 0 1 1 -0.26,0 z"
         shaper:cutDepth="0"
         shaper:pathType="interior"
         transform="matrix(1,0,0,-1,0.2,7.8)"
         id="path20-1"
         style="vector-effect:non-scaling-stroke;fill:none;stroke:#000000;stroke-width:0.99999273;stroke-miterlimit:4;stroke-dasharray:none;stroke-opacity:1"
         inkscape:connector-curvature="0" />
      <path
         d="M 6.01,1 A 0.13,0.13 0 1 1 6.27,1 0.13,0.13 0 1 1 6.01,1 Z"
         shaper:cutDepth="0"
         shaper:pathType="interior"
         transform="matrix(1,0,0,-1,0.2,7.8)"
         id="path22-2"
         style="vector-effect:non-scaling-stroke;fill:none;stroke:#000000;stroke-width:0.99999273;stroke-miterlimit:4;stroke-dasharray:none;stroke-opacity:1"
         inkscape:connector-curvature="0" />
      <path
         d="m 2.695,5 a 0.105,0.105 0 1 1 0.21,0 0.105,0.105 0 1 1 -0.21,0 z"
         shaper:cutDepth="0"
         shaper:pathType="interior"
         transform="matrix(1,0,0,-1,0.2,7.8)"
         id="path24-7"
         style="vector-effect:non-scaling-stroke;fill:none;stroke:#000000;stroke-width:0.99999273;stroke-miterlimit:4;stroke-dasharray:none;stroke-opacity:1"
         inkscape:connector-curvature="0" />
      <path
         d="m 2.695,2 a 0.105,0.105 0 1 1 0.21,0 0.105,0.105 0 1 1 -0.21,0 z"
         shaper:cutDepth="0"
         shaper:pathType="interior"
         transform="matrix(1,0,0,-1,0.2,7.8)"
         id="path26-0"
         style="vector-effect:non-scaling-stroke;fill:none;stroke:#000000;stroke-width:0.99999273;stroke-miterlimit:4;stroke-dasharray:none;stroke-opacity:1"
         inkscape:connector-curvature="0" />
      <path
         d="m 0.695,5 a 0.105,0.105 0 1 1 0.21,0 0.105,0.105 0 1 1 -0.21,0 z"
         shaper:cutDepth="0"
         shaper:pathType="interior"
         transform="matrix(1,0,0,-1,0.2,7.8)"
         id="path28-9"
         style="vector-effect:non-scaling-stroke;fill:none;stroke:#000000;stroke-width:0.99999273;stroke-miterlimit:4;stroke-dasharray:none;stroke-opacity:1"
         inkscape:connector-curvature="0" />
      <path
         d="m 0.695,2 a 0.105,0.105 0 1 1 0.21,0 0.105,0.105 0 1 1 -0.21,0 z"
         shaper:cutDepth="0"
         shaper:pathType="interior"
         transform="matrix(1,0,0,-1,0.2,7.8)"
         id="path30-3"
         style="vector-effect:non-scaling-stroke;fill:none;stroke:#000000;stroke-width:0.99999273;stroke-miterlimit:4;stroke-dasharray:none;stroke-opacity:1"
         inkscape:connector-curvature="0" />
    </g>
  </g>
</svg>
